<svg width="35" height="35" viewBox="0 0 35 35" fill="none" xmlns="http://www.w3.org/2000/svg">
<path d="M0 8.75018C0 6.33394 1.95875 4.37518 4.375 4.37518H30.625C33.0412 4.37518 35 6.33394 35 8.75018V26.2502C35 28.6664 33.0412 30.6252 30.625 30.6252H4.375C1.95876 30.6252 0 28.6664 0 26.2502V8.75018ZM4.375 6.56268C3.16688 6.56268 2.1875 7.54206 2.1875 8.75018V9.22466L17.5 18.4122L32.8125 9.22466V8.75018C32.8125 7.54206 31.8331 6.56268 30.625 6.56268H4.375ZM32.8125 11.7757L22.5136 17.9551L32.8125 24.2928V11.7757ZM32.7386 26.8159L20.4002 19.2231L17.5 20.9632L14.5998 19.2231L2.26136 26.8159C2.51069 27.7498 3.36252 28.4377 4.375 28.4377H30.625C31.6375 28.4377 32.4893 27.7498 32.7386 26.8159ZM2.1875 24.2928L12.4864 17.9551L2.1875 11.7757V24.2928Z" fill="black"/>
</svg>
