<svg width="35" height="35" viewBox="0 0 35 35" fill="none" xmlns="http://www.w3.org/2000/svg">
<path d="M29.2226 24.5822C32.9466 21.2646 35 17.5 35 17.5C35 17.5 28.4375 5.46877 17.5 5.46877C15.2789 5.46877 13.2381 5.96494 11.3962 6.75576L13.0824 8.44204C14.459 7.94759 15.9346 7.65627 17.5 7.65627C22.1361 7.65627 25.9852 10.2117 28.8048 13.0312C30.1956 14.422 31.2765 15.8199 32.0091 16.8709C32.1682 17.0992 32.3102 17.3102 32.4347 17.5C32.3102 17.6899 32.1682 17.9008 32.0091 18.1291C31.2765 19.1802 30.1956 20.578 28.8048 21.9688C28.4442 22.3294 28.0668 22.6856 27.6731 23.0327L29.2226 24.5822Z" fill="black"/>
<path d="M24.7132 20.0728C25.0001 19.2687 25.1562 18.4026 25.1562 17.5C25.1562 13.2716 21.7284 9.84377 17.5 9.84377C16.5974 9.84377 15.7313 9.99996 14.9272 10.2868L16.726 12.0856C16.9789 12.0498 17.2373 12.0313 17.5 12.0313C20.5203 12.0313 22.9688 14.4797 22.9688 17.5C22.9688 17.7628 22.9502 18.0212 22.9144 18.274L24.7132 20.0728Z" fill="black"/>
<path d="M18.274 22.9144L20.0729 24.7132C19.2688 25.0001 18.4026 25.1563 17.5 25.1563C13.2716 25.1563 9.84375 21.7285 9.84375 17.5C9.84375 16.5974 9.99995 15.7313 10.2868 14.9272L12.0856 16.726C12.0498 16.9788 12.0312 17.2373 12.0312 17.5C12.0312 20.5203 14.4797 22.9688 17.5 22.9688C17.7628 22.9688 18.0212 22.9502 18.274 22.9144Z" fill="black"/>
<path d="M7.3269 11.9673C6.93318 12.3144 6.55579 12.6706 6.19523 13.0312C4.80443 14.422 3.72347 15.8199 2.99091 16.8709C2.83181 17.0992 2.68981 17.3102 2.56528 17.5C2.68981 17.6899 2.83181 17.9008 2.99091 18.1291C3.72347 19.1802 4.80443 20.578 6.19523 21.9688C9.01476 24.7884 12.8639 27.3438 17.5 27.3438C19.0654 27.3438 20.541 27.0524 21.9176 26.558L23.6039 28.2443C21.7619 29.0351 19.7212 29.5313 17.5 29.5313C6.5625 29.5313 0 17.5 0 17.5C0 17.5 2.05344 13.7354 5.77744 10.4178L7.3269 11.9673Z" fill="black"/>
<path d="M29.8516 31.3984L3.6016 5.14842L5.1484 3.60162L31.3984 29.8516L29.8516 31.3984Z" fill="black"/>
</svg>
