<svg width="35" height="35" viewBox="0 0 35 35" fill="none" xmlns="http://www.w3.org/2000/svg">
<path d="M17.5015 0C12.7487 0 12.1523 0.0207816 10.2856 0.105729C8.42261 0.191042 7.15094 0.48599 6.03823 0.91875C4.88724 1.36573 3.91089 1.96365 2.93818 2.93672C1.96474 3.90943 1.36682 4.88578 0.918385 6.03641C0.484531 7.14948 0.189219 8.42151 0.105364 10.2838C0.0218748 12.1505 0 12.7473 0 17.5C0 22.2527 0.0211462 22.8473 0.105729 24.714C0.191407 26.577 0.486354 27.8487 0.91875 28.9614C1.36609 30.1124 1.96401 31.0887 2.93708 32.0615C3.90943 33.0349 4.88578 33.6343 6.03604 34.0812C7.14948 34.514 8.42151 34.809 10.2842 34.8943C12.1508 34.9792 12.7469 35 17.4993 35C22.2523 35 22.847 34.9792 24.7136 34.8943C26.5767 34.809 27.8498 34.514 28.9632 34.0812C30.1139 33.6343 31.0888 33.0349 32.0611 32.0615C33.0345 31.0887 33.6324 30.1124 34.0809 28.9618C34.5111 27.8487 34.8064 26.5767 34.8939 24.7144C34.9778 22.8477 34.9996 22.2527 34.9996 17.5C34.9996 12.7473 34.9778 12.1508 34.8939 10.2842C34.8064 8.42115 34.5111 7.14948 34.0809 6.03677C33.6324 4.88578 33.0345 3.90943 32.0611 2.93672C31.0877 1.96328 30.1142 1.36536 28.9621 0.91875C27.8465 0.48599 26.5741 0.191042 24.7111 0.105729C22.8444 0.0207816 22.2502 0 17.496 0H17.5015ZM15.9316 3.15365C16.3975 3.15292 16.9174 3.15365 17.5015 3.15365C22.174 3.15365 22.7278 3.17042 24.5729 3.25427C26.2792 3.33229 27.2052 3.6174 27.8221 3.85693C28.6387 4.17411 29.221 4.55328 29.8331 5.16578C30.4456 5.77828 30.8248 6.36161 31.1427 7.17828C31.3822 7.79443 31.6677 8.72047 31.7454 10.4267C31.8292 12.2715 31.8474 12.8257 31.8474 17.496C31.8474 22.1663 31.8292 22.7205 31.7454 24.5653C31.6673 26.2715 31.3822 27.1976 31.1427 27.8137C30.8255 28.6304 30.4456 29.2119 29.8331 29.824C29.2206 30.4365 28.6391 30.8157 27.8221 31.1329C27.2059 31.3735 26.2792 31.6579 24.5729 31.7359C22.7281 31.8197 22.174 31.838 17.5015 31.838C12.8286 31.838 12.2748 31.8197 10.43 31.7359C8.72375 31.6571 7.79771 31.372 7.18047 31.1325C6.3638 30.8153 5.78047 30.4361 5.16797 29.8236C4.55547 29.2111 4.1763 28.6293 3.85839 27.8122C3.61885 27.1961 3.33339 26.2701 3.25573 24.5638C3.17188 22.719 3.1551 22.1648 3.1551 17.4916C3.1551 12.8184 3.17188 12.2671 3.25573 10.4223C3.33375 8.71609 3.61885 7.79005 3.85839 7.17318C4.17557 6.35651 4.55547 5.77318 5.16797 5.16068C5.78047 4.54818 6.3638 4.16901 7.18047 3.85109C7.79734 3.61047 8.72375 3.32609 10.43 3.24771C12.0444 3.17479 12.67 3.15292 15.9316 3.14927V3.15365ZM26.8428 6.05937C25.6834 6.05937 24.7428 6.99891 24.7428 8.15864C24.7428 9.31802 25.6834 10.2586 26.8428 10.2586C28.0022 10.2586 28.9428 9.31802 28.9428 8.15864C28.9428 6.99927 28.0022 6.05937 26.8428 6.05937ZM17.5015 8.51302C12.5384 8.51302 8.51448 12.5369 8.51448 17.5C8.51448 22.4631 12.5384 26.4852 17.5015 26.4852C22.4645 26.4852 26.487 22.4631 26.487 17.5C26.487 12.5369 22.4645 8.51302 17.5015 8.51302ZM17.5015 11.6667C20.7229 11.6667 23.3348 14.2782 23.3348 17.5C23.3348 20.7215 20.7229 23.3333 17.5015 23.3333C14.2796 23.3333 11.6681 20.7215 11.6681 17.5C11.6681 14.2782 14.2796 11.6667 17.5015 11.6667Z" fill="black"/>
</svg>
