<svg width="35" height="35" viewBox="0 0 35 35" fill="none" xmlns="http://www.w3.org/2000/svg">
<path d="M7.99285 2.90607C7.44501 2.20171 6.4038 2.13688 5.77282 2.76786L3.51111 5.02956C2.45351 6.08717 2.06471 7.5855 2.52679 8.89978C4.38238 14.1777 7.42033 19.1334 11.6434 23.3565C15.8666 27.5797 20.8223 30.6176 26.1002 32.4732C27.4145 32.9353 28.9128 32.5465 29.9704 31.4889L32.2321 29.2272C32.8631 28.5962 32.7983 27.555 32.0939 27.0072L27.0491 23.0834C26.6893 22.8036 26.2208 22.7047 25.7785 22.8152L20.99 24.0124C19.6893 24.3375 18.3134 23.9564 17.3654 23.0084L11.9916 17.6346C11.0436 16.6866 10.6625 15.3107 10.9876 14.01L12.1848 9.22147C12.2953 8.77922 12.1964 8.3107 11.9166 7.95087L7.99285 2.90607ZM4.12294 1.11798C5.74632 -0.505397 8.42515 -0.338619 9.83463 1.47358L13.7584 6.51837C14.4784 7.44414 14.7329 8.64956 14.4484 9.78737L13.2513 14.5759C13.1249 15.0815 13.273 15.6163 13.6415 15.9848L19.0152 21.3585C19.3837 21.727 19.9185 21.8751 20.424 21.7488L25.2126 20.5516C26.3504 20.2672 27.5559 20.5216 28.4816 21.2416L33.5264 25.1654C35.3386 26.5749 35.5054 29.2537 33.882 30.8771L31.6203 33.1388C30.0022 34.7569 27.5819 35.4674 25.3263 34.6744C19.7259 32.7054 14.469 29.4818 9.99357 25.0064C5.51818 20.531 2.29458 15.2741 0.325583 9.67367C-0.46743 7.41808 0.243097 4.99782 1.86123 3.37968L4.12294 1.11798Z" fill="black"/>
</svg>
