<svg width="35" height="35" viewBox="0 0 35 35" fill="none" xmlns="http://www.w3.org/2000/svg">
<path fill-rule="evenodd" clip-rule="evenodd" d="M27.3437 13.125C27.9478 13.125 28.4375 13.6147 28.4375 14.2188L28.4375 31.7187C28.4375 32.3228 27.9478 32.8125 27.3437 32.8125L7.65625 32.8125C7.05219 32.8125 6.5625 32.3228 6.5625 31.7187L6.5625 14.2187C6.5625 13.6147 7.05219 13.125 7.65625 13.125L12.0312 13.125C12.6353 13.125 13.125 12.6353 13.125 12.0312C13.125 11.4272 12.6353 10.9375 12.0312 10.9375L7.65625 10.9375C5.84406 10.9375 4.375 12.4066 4.375 14.2187L4.375 31.7187C4.375 33.5309 5.84406 35 7.65625 35L27.3437 35C29.1559 35 30.625 33.5309 30.625 31.7188L30.625 14.2188C30.625 12.4066 29.1559 10.9375 27.3438 10.9375L22.9688 10.9375C22.3647 10.9375 21.875 11.4272 21.875 12.0312C21.875 12.6353 22.3647 13.125 22.9687 13.125L27.3437 13.125Z" fill="black"/>
<path fill-rule="evenodd" clip-rule="evenodd" d="M18.2734 0.320351C17.8463 -0.106785 17.1537 -0.106785 16.7266 0.320351L10.1641 6.88285C9.73696 7.30999 9.73696 8.00251 10.1641 8.42965C10.5912 8.85678 11.2838 8.85678 11.7109 8.42965L16.4062 3.7343L16.4062 22.9687C16.4062 23.5728 16.8959 24.0625 17.5 24.0625C18.1041 24.0625 18.5937 23.5728 18.5937 22.9687L18.5937 3.7343L23.2891 8.42965C23.7162 8.85678 24.4088 8.85678 24.8359 8.42965C25.263 8.00251 25.263 7.30999 24.8359 6.88285L18.2734 0.320351Z" fill="black"/>
</svg>
